<?xml version="1.0" encoding="iso-8859-1"?>
<!-- Generator: Adobe Illustrator 18.0.0, SVG Export Plug-In . SVG Version: 6.00 Build 0)  -->
<!DOCTYPE svg PUBLIC "-//W3C//DTD SVG 1.1//EN" "http://www.w3.org/Graphics/SVG/1.1/DTD/svg11.dtd">
<svg version="1.1" id="Capa_1" xmlns="http://www.w3.org/2000/svg" xmlns:xlink="http://www.w3.org/1999/xlink" x="0px" y="0px"
	 viewBox="0 0 59 59" style="enable-background:new 0 0 59 59;" xml:space="preserve">
<g>
	<path style="fill:#6A3311;" d="M56,33H3c-1.65,0-3-1.35-3-3v0c0-1.65,1.35-3,3-3h53c1.65,0,3,1.35,3,3v0C59,31.65,57.65,33,56,33z"
		/>
	<path style="fill:#8E4A28;" d="M54,39H5c-1.65,0-3-1.35-3-3v0c0-1.65,1.35-3,3-3h49c1.65,0,3,1.35,3,3v0C57,37.65,55.65,39,54,39z"
		/>
	<g>
		<path style="fill:#E3E82A;" d="M32.293,31.913c-0.438,0.438-1.148,0.438-1.586,0c-1.217-1.217-3.197-1.217-4.414,0
			c-0.438,0.438-1.148,0.438-1.586,0c-1.217-1.217-3.197-1.217-4.414,0c-0.425,0.424-1.161,0.424-1.586,0
			c-1.217-1.217-3.197-1.217-4.414,0c-0.425,0.424-1.161,0.424-1.586,0c-1.217-1.217-3.197-1.217-4.414,0
			c-0.438,0.438-1.148,0.438-1.586,0c-1.18-1.18-3.234-1.18-4.414,0c-0.391,0.391-0.391,1.023,0,1.414s1.023,0.391,1.414,0
			c0.438-0.438,1.148-0.438,1.586,0c1.217,1.217,3.197,1.217,4.414,0c0.438-0.438,1.148-0.438,1.586,0
			c1.217,1.217,3.197,1.217,4.414,0c0.425-0.424,1.161-0.424,1.586,0c1.217,1.217,3.197,1.217,4.414,0
			c0.425-0.424,1.161-0.424,1.586,0c1.217,1.217,3.197,1.217,4.414,0c0.438-0.438,1.148-0.438,1.586,0
			c0.59,0.59,1.374,0.915,2.207,0.915s1.617-0.325,2.207-0.915c0.391-0.391,0.391-1.023,0-1.414S32.684,31.522,32.293,31.913z"/>
		<path style="fill:#E3E82A;" d="M39.707,31.913c-0.391-0.391-1.023-0.391-1.414,0c-0.425,0.424-1.161,0.424-1.586,0
			c-1.217-1.217-3.197-1.217-4.414,0c-0.391,0.391-0.391,1.023,0,1.414s1.023,0.391,1.414,0c0.425-0.424,1.161-0.424,1.586,0
			c0.608,0.608,1.408,0.913,2.207,0.913s1.599-0.305,2.207-0.913C40.098,32.936,40.098,32.303,39.707,31.913z"/>
		<path style="fill:#E3E82A;" d="M45.707,31.913c-0.391-0.391-1.023-0.391-1.414,0c-0.425,0.424-1.161,0.424-1.586,0
			c-1.217-1.217-3.197-1.217-4.414,0c-0.391,0.391-0.391,1.023,0,1.414s1.023,0.391,1.414,0c0.425-0.424,1.161-0.424,1.586,0
			c0.608,0.608,1.408,0.913,2.207,0.913s1.599-0.305,2.207-0.913C46.098,32.936,46.098,32.303,45.707,31.913z"/>
		<path style="fill:#E3E82A;" d="M51.707,31.913c-0.391-0.391-1.023-0.391-1.414,0c-0.425,0.424-1.161,0.424-1.586,0
			c-1.217-1.217-3.197-1.217-4.414,0c-0.391,0.391-0.391,1.023,0,1.414s1.023,0.391,1.414,0c0.425-0.424,1.161-0.424,1.586,0
			c0.608,0.608,1.408,0.913,2.207,0.913s1.599-0.305,2.207-0.913C52.098,32.936,52.098,32.303,51.707,31.913z"/>
		<path style="fill:#E3E82A;" d="M57.707,31.913c-0.391-0.391-1.023-0.391-1.414,0c-0.425,0.424-1.161,0.424-1.586,0
			c-1.217-1.217-3.197-1.217-4.414,0c-0.391,0.391-0.391,1.023,0,1.414s1.023,0.391,1.414,0c0.425-0.424,1.161-0.424,1.586,0
			c0.608,0.608,1.408,0.913,2.207,0.913s1.599-0.305,2.207-0.913C58.098,32.936,58.098,32.303,57.707,31.913z"/>
	</g>
	<path style="fill:#D28F1B;" d="M44.295,53h-29.6c-2.803,0-5.29-1.796-6.171-4.457L6,40.924h46.973l-2.503,7.607
		C49.593,51.198,47.103,53,44.295,53z"/>
	<g>
		<path style="fill:#FCC66F;" d="M15.555,44.092c-0.46-0.307-1.08-0.183-1.387,0.277c-0.306,0.46-0.182,1.08,0.277,1.387l3,2
			c0.17,0.113,0.363,0.168,0.554,0.168c0.323,0,0.64-0.156,0.833-0.445c0.306-0.46,0.182-1.08-0.277-1.387L15.555,44.092z"/>
		<path style="fill:#FCC66F;" d="M24.447,44.029c-0.496-0.246-1.095-0.047-1.342,0.447l-1,2c-0.247,0.494-0.047,1.095,0.447,1.342
			c0.144,0.071,0.296,0.105,0.446,0.105c0.367,0,0.72-0.202,0.896-0.553l1-2C25.142,44.877,24.941,44.276,24.447,44.029z"/>
		<path style="fill:#FCC66F;" d="M28.895,47.477c-0.247-0.493-0.846-0.693-1.342-0.447c-0.494,0.247-0.694,0.848-0.447,1.342l1,2
			c0.175,0.351,0.528,0.553,0.896,0.553c0.15,0,0.303-0.034,0.446-0.105c0.494-0.247,0.694-0.848,0.447-1.342L28.895,47.477z"/>
		<path style="fill:#FCC66F;" d="M34.447,43.029c-0.496-0.246-1.095-0.047-1.342,0.447l-1,2c-0.247,0.494-0.047,1.095,0.447,1.342
			c0.144,0.071,0.296,0.105,0.446,0.105c0.367,0,0.72-0.202,0.896-0.553l1-2C35.142,43.877,34.941,43.276,34.447,43.029z"/>
		<path style="fill:#FCC66F;" d="M39.895,46.477c-0.248-0.494-0.846-0.693-1.342-0.447c-0.494,0.247-0.694,0.848-0.447,1.342l1,2
			c0.175,0.351,0.528,0.553,0.896,0.553c0.15,0,0.303-0.034,0.446-0.105c0.494-0.247,0.694-0.848,0.447-1.342L39.895,46.477z"/>
		<path style="fill:#FCC66F;" d="M45.447,43.029c-0.495-0.246-1.095-0.047-1.342,0.447l-1,2c-0.247,0.494-0.047,1.095,0.447,1.342
			c0.144,0.071,0.296,0.105,0.446,0.105c0.367,0,0.72-0.202,0.896-0.553l1-2C46.142,43.877,45.941,43.276,45.447,43.029z"/>
	</g>
	<path style="fill:#88C057;" d="M51,40v-2.096C51,36.852,49.769,36,48.25,36c-1.519,0-2.75,0.852-2.75,1.904
		c0-1.051-1.231-1.904-2.75-1.904C41.231,36,40,36.852,40,37.904C40,36.852,38.769,36,37.25,36c-1.519,0-2.75,0.852-2.75,1.904
		c0-1.051-1.231-1.904-2.75-1.904C30.231,36,29,36.852,29,37.904C29,36.852,27.769,36,26.25,36c-1.519,0-2.75,0.852-2.75,1.904
		c0-1.051-1.231-1.904-2.75-1.904C19.231,36,18,36.852,18,37.904C18,36.852,16.769,36,15.25,36c-1.519,0-2.75,0.852-2.75,1.904
		C12.5,36.852,11.269,36,9.75,36C8.231,36,7,36.852,7,37.904V40H51z"/>
	<path style="fill:#659C35;" d="M53,41v-0.75c0-1.243-1.315-2.25-2.938-2.25c-1.622,0-2.937,1.007-2.937,2.25
		c0-1.243-1.315-2.25-2.938-2.25c-1.622,0-2.937,1.007-2.937,2.25c0-1.243-1.315-2.25-2.938-2.25c-1.622,0-2.937,1.007-2.937,2.25
		c0-1.243-1.315-2.25-2.938-2.25c-1.622,0-2.937,1.007-2.937,2.25c0-1.243-1.315-2.25-2.938-2.25c-1.622,0-2.937,1.007-2.937,2.25
		c0-1.243-1.315-2.25-2.938-2.25c-1.622,0-2.937,1.007-2.937,2.25c0-1.243-1.315-2.25-2.938-2.25c-1.622,0-2.937,1.007-2.937,2.25
		c0-1.243-1.315-2.25-2.938-2.25C7.315,38,6,39.007,6,40.25V41H53z"/>
	<path style="fill:#F9EA80;" d="M54.728,27h-51c-0.552,0-1-0.447-1-1s0.448-1,1-1h51c0.552,0,1,0.447,1,1S55.28,27,54.728,27z"/>
	<path style="fill:#D28F1B;" d="M53.372,25C50.875,14.119,41.139,6,29.5,6S8.125,14.119,5.628,25H53.372z"/>
	<g>
		<path style="fill:#EFDFA0;" d="M45.555,18.168l-3-2c-0.461-0.306-1.081-0.182-1.387,0.277c-0.306,0.46-0.182,1.08,0.277,1.387l3,2
			C44.616,19.945,44.809,20,44.999,20c0.323,0,0.64-0.156,0.833-0.445C46.138,19.095,46.014,18.475,45.555,18.168z"/>
		<path style="fill:#EFDFA0;" d="M37.447,17.105c-0.496-0.246-1.095-0.046-1.342,0.447l-1,2c-0.247,0.494-0.047,1.095,0.447,1.342
			C35.696,20.966,35.849,21,35.999,21c0.367,0,0.72-0.202,0.896-0.553l1-2C38.142,17.953,37.941,17.353,37.447,17.105z"/>
		<path style="fill:#EFDFA0;" d="M33.895,12.553c-0.247-0.494-0.847-0.692-1.342-0.447c-0.494,0.247-0.694,0.848-0.447,1.342l1,2
			C33.281,15.798,33.634,16,34.001,16c0.15,0,0.303-0.034,0.446-0.105c0.494-0.247,0.694-0.848,0.447-1.342L33.895,12.553z"/>
		<path style="fill:#EFDFA0;" d="M27.447,18.105c-0.496-0.245-1.095-0.046-1.342,0.447l-1,2c-0.247,0.494-0.047,1.095,0.447,1.342
			C25.696,21.966,25.849,22,25.999,22c0.367,0,0.72-0.202,0.896-0.553l1-2C28.142,18.953,27.941,18.353,27.447,18.105z"/>
		<path style="fill:#EFDFA0;" d="M28.447,9.105c-0.495-0.246-1.095-0.047-1.342,0.447l-1,2c-0.247,0.494-0.047,1.095,0.447,1.342
			C26.696,12.966,26.849,13,26.999,13c0.367,0,0.72-0.202,0.896-0.553l1-2C29.142,9.953,28.941,9.353,28.447,9.105z"/>
		<path style="fill:#EFDFA0;" d="M20.895,14.553c-0.247-0.494-0.847-0.693-1.342-0.447c-0.494,0.247-0.694,0.848-0.447,1.342l1,2
			C20.281,17.798,20.634,18,21.001,18c0.15,0,0.303-0.034,0.446-0.105c0.494-0.247,0.694-0.848,0.447-1.342L20.895,14.553z"/>
		<path style="fill:#EFDFA0;" d="M16.447,18.105c-0.496-0.245-1.095-0.046-1.342,0.447l-1,2c-0.247,0.494-0.047,1.095,0.447,1.342
			C14.696,21.966,14.849,22,14.999,22c0.367,0,0.72-0.202,0.896-0.553l1-2C17.142,18.953,16.941,18.353,16.447,18.105z"/>
	</g>
	<polygon style="fill:#F9EA80;" points="41.796,32.229 37,25.998 41.796,25.998 46.593,25.998 	"/>
</g>
<g>
</g>
<g>
</g>
<g>
</g>
<g>
</g>
<g>
</g>
<g>
</g>
<g>
</g>
<g>
</g>
<g>
</g>
<g>
</g>
<g>
</g>
<g>
</g>
<g>
</g>
<g>
</g>
<g>
</g>
</svg>
